<svg id="Calque_1" data-name="Calque 1" xmlns="http://www.w3.org/2000/svg" viewBox="0 0 271.39 223.97"><defs><style>.cls-1{fill:#7cc9b1;}</style></defs><title>Cariole Vapeur Vert</title><path class="cls-1" d="M243.93,195.35l-.16.34,7.53,3.54,1.35-3.88Zm-48.59,0c1.7,1.18.57,4.08,3.13,3.48,2.87-.67,5.56-2.13,8.93-3.48H195.34Zm38.75,6.2-.63.2,3.79,11.5,3-1.73-6.15-10m5.75-15V187l14.1,2.28v-4.07l-14,1.41m8.37,17.74,2.41-4-12-5.46-.45.82,10,8.62m-53-24.7,15.17,2.57.13-.38-14-6.46-1.37,4.27m57.92-1-16.69,6.66c5.2-.22,10.27-.75,15.36-1.13,1.76-.13,2.36-.85,2-2.5-.18-.88-.4-1.76-.69-3m-17.78,5.12.24.42,17.27-6.9-2.69-6-14.82,12.5m-23.09,30,6.08,1.9,5.61-19.34-.51-.22-11.2,17.67m23.82.14c-2.3-6.51-3.93-12.73-6.32-18.68l-.85.25,1,20.27,6.18-1.84m-20.18-25L195,191.05c-.27,2,.57,2.56,2.23,2.53,4.46-.06,8.93.16,13.38-.1,2.12-.12,4.19-1.06,6.4-1.65l-1.1-2.9M211,213.19l11-17.36-.49-.41-16.43,13.87,5.92,3.9m7.78-56.3,6.8,20.59,1-.24-1.1-20.85-6.72.5m34.92,33.75-19.29-3.17-.83,3.33c2.8,1.62,5.54,3,8.88,2.71a78.33,78.33,0,0,1,8.67,0c1.76.07,2.67-.51,2.58-2.85M219.3,179.42l.7-.62-11.21-18.1-5.86,4.76,16.36,14m28.16,26c-3.51-3-6.88-5.77-10.08-8.72a5.15,5.15,0,0,0-5.37-1.15L241.53,211l5.92-5.5m-4.52-42.63-6.64-3.93c-1.93,6.56-3.79,12.79-5.54,19-.17.62.35,1.44.56,2.17h.62l11-17.24M228,178.19h1.22l5.81-19.85-8.14-1.84L228,178.19M110.3,207.36v-9.68c0-1.61-.48-2.43-2.27-2.43s-2.28.86-2.27,2.45v19.12c0,1.6.66,2.6,2.28,2.59s2.28-1,2.25-2.62v-9.43m139.2-37.31-5.56-6.31c-3.71,5.84-7.2,11.26-10.56,16.75-.38.62,0,1.67,0,3.19l16.12-13.63m-20.88,46-1.15-20.88c-1.16.94-2,1.29-2.23,1.85-1.91,6.22-3.7,12.47-5.62,19h9Zm-18.68-56,11.28,18.11,2.83-.9c-2.07-6.34-4.06-12.51-6.15-18.65a1.92,1.92,0,0,0-1.56-1c-2.08.64-4.1,1.51-6.39,2.4m-6,48.48,15.29-12.88c-8-1.83-14.16,2.52-21.36,5.06l6.07,7.82M194.81,181c-.13,2.55-.26,4.76-.34,7a1.41,1.41,0,0,0,1.81,1.67c6.4-.7,12.8-1.34,19.27-2l.46-3.14L194.81,181m23.36-.66-16.24-14-5,7.71,19.44,9,1.78-2.74m45.48-91.9c-1.21-.06-2.26-.15-3.31-.15h-38.2a8,8,0,0,0-2.22.09,1.93,1.93,0,0,0-1.27,1.12c-.1,3.34-.06,6.7-.06,10.08h45V88.4Zm0-14.43h-42.7c-2,0-2.63.62-2.53,2.54a52.8,52.8,0,0,1,0,7c-.18,2.36.6,3.13,3,3.11,13.15-.11,26.31,0,39.47-.06.87,0,1.74-.13,2.68-.21V74Zm-233,42.92-.09.54L85,144.26c.07-1.31.15-2.11.15-2.91,0-7.21-.09-14.41.06-21.62,0-2.39-.79-2.88-3-2.87-16.57.08-33.13,0-49.7,0h-2ZM2.18,115.1c1.85,0,3.59-.08,5.31,0a8.3,8.3,0,0,1,3.07.69Q42.15,131.34,73.7,147c3.66,1.81,7.33,3.58,11.08,5.41.94-5,.63-5.94-2-7.23q-27.7-13.62-55.38-27.3a8.45,8.45,0,0,1-1.86-1.8,7.92,7.92,0,0,1,2.46-.89q26.83-.08,53.66,0H84.5c1.2-5.3.92-5.68-3.84-5.68H6.48c-5.11,0-5.21.12-4.22,5.68m219.67-100c-3.09,8.58-10.66,11.75-17.74,15.5a22.79,22.79,0,0,0-3.34,2.13c-4.86,3.78-8.07,8.26-6.45,14.9.68,2.79.55,5.86,1.62,8.45,3.46,8.38,15,7.25,22.22,4.43,4.43-3,7.25-4.8,8.62-10.6-.32-7.11.55-12.62-2.38-18.51-.18-.37-.32-.76-.48-1.14-2-4.81-4.2-9.59-2.07-15.16m-78,46.68c6.17.06,10.12-2.45,11.48-8.4,1.15-5,1.32-10.25,1.91-15.38a.68.68,0,0,0-.06-.48c-1.67-1.68-.87-3.57-.35-5.34.84-2.87,0-5.11-2-7.23a3.85,3.85,0,0,1-.84-2.81c.39-2.73.39-2.8-2.3-2.48-1.34.15-2.91.53-4,0a24.15,24.15,0,0,1-4.84-3.49C139,13,135.29,14,133.77,18.76c-.5,1.58-1.29,2.21-2.83,2-1.89-.19-3.1.64-3.34,2.5-.65,5-1.61,10.06-1.66,15.1a35.18,35.18,0,0,0,2,10.93c2,6.23,7.4,12.67,16,12.51m55.7.78C194.42,79,189.25,83.76,184,100.17c1.15,0,1.89.12,2.62.12,9.18,0,18.37-.08,27.55.06,2.42,0,3.08-.68,3-3.06-.15-7.36,0-14.72-.09-22.08,0-2,.63-2.68,2.57-2.51,1.53.13,3.09,0,5.14,0-3.59-7.87-4-5.29-6.22-10.71-1.94,1-17.38,1.57-19,.62m-33.34,37.58L153.54,60.74c-3.76.67-7.12,1.86-10.42,1.71s-6.7-1.63-10.37-2.61l-15,40.35Zm95.25,92.94c4.7,1.33,8-1.59,7.92-5.79-.15-26.33-.07-52.67-.08-79,0-4.49-1.62-6.06-6.18-6.06H93.23c-4.36,0-6.21,1.67-6.21,5.52,0,26.34.07,52.67-.08,79,0,4.94,2.65,6.81,6.78,6.75,6.27-.08,12.54,0,18.81,0h74.72c-1.73-11.68.61-22.06,8-31a36.4,36.4,0,0,1,28.81-13.72,35.84,35.84,0,0,1,25.56,9.75c10.1,9.35,13.72,21.09,11.88,34.56M146.2,4.28c.67-.54,1.25-1,1.79-1.45,1.94-1.68,3.21-1.28,3.81,1.22.73,3-.7,3.26,2.33,2.63a15.9,15.9,0,0,1,3.19-.35c4.5,0,2.87,2.06,2,4.62-.4.57-.64,1.18.23,1.23,2,.09,2.48-1.18,2.44.49,0,1.08.11-.54.11.53,0,3.11-1.82,2.57,1.07,3.72.83.33,1.6.78,2.85,1.39-1.21,1.36-1.25,1.47-2.2,2.63s-1.71,1.29-1,2.45c1.78,2.69,2,3.6,1.1,6.1a4.64,4.64,0,0,1-2,2.92c-.07,1.49-.08,2.68-.19,3.85-.21,2.42.14,4.66-3.06,4.84-.29,0,.11.25.31.73.67,1,1.22,1.9.8,2.57a8.82,8.82,0,0,1-1.52,1.52c-.61,2.6-1.18,5.07-1.77,7.53a3.79,3.79,0,0,1-.46,1.4c-2.71,3.55-1.28,7-.08,10.66,3.62,10.9,7.11,21.83,10.55,32.78.49,1.55,1.18,2.09,2.77,2,3.89-.1,7.79-.13,11.68,0,1.77.07,2.4-.65,2.89-2.21,6.12-14.76,9.5-18.48,14.35-33.41.63-2,.57-3.41-1-4.87a19.33,19.33,0,0,1-2.26-3.31c-1.82,2.81-2.49,2.45-2.45-.13,0-3.63.25-3.22.25-7.26l-3,1.91V38.31l-2.93.9,2.43-8.92-2-.5c-.58-.23-.84-.17.07-2,.51-1,1.48-1.79,1.9-2.81,4.52-11,12.6-14.27,23.92-16a76,76,0,0,1,11.63-.6c1.24,0,1.39,2.33,2.33,3.18,3.5,3.2,4.29,4.36,5.14,8.82,1.21,6.31,2.77,12.07,3.58,18.45.12.93.59,2.29-1.28,2.28a3.11,3.11,0,0,0-.56,1.18l-1.55,3.39c.31,3.64-.08,4-4,2.79-2.79,4.93-4.23,8.69-8.73,12.43-.3.25.22,2.46.46,2.87,2.84,4.84,2,1.91,4.89,7.59.42,1.54,1.82,1.32,3,1.32h36.9v27.51c5.4,1.23,6.48,5,6.46,9.78-.1,25.43,0,50.85,0,76.28,0,6.53-2.15,8.82-8.68,9-1.53,0-1.84.77-2.25,2-4.75,14.08-14.29,23-28.92,26a37.26,37.26,0,0,1-42.7-24.93c-.83-2.57-2-3.14-4.48-3.13-22.94.1-45.88.06-68.83.06h-3.18v22.16c-.21,2.44-1.62,3.7-4.08,3.73s-4-1.18-4.22-3.57c-.17-2.14-.07-4.3-.07-6.46V195.27H93.26c-5.34,0-7.92-2.6-7.93-7.91V157.05a3.28,3.28,0,0,0-2.11-3.44c-24.29-11.9-48.49-23.91-72.83-35.68-2.22-1.08-5.13-.89-7.74-1-1.82-.06-2.64-.4-2.65-2.47,0-6.82-.12-6.82,6.7-6.82H84.84c2-6.49,3.17-7.36,10-7.36,6.54,0,13.09-.07,19.63,0,1.9,0,2.71-.63,3.35-2.39,4.59-12.66,9.32-25.27,13.92-37.92a3.37,3.37,0,0,0-.17-2.83c-4-4.21-5.08-9.52-5.89-15-.2-1.37-.42-2.74-.65-4.22-2.19,1-1.69-1.63-.4-3.12-2.21-.71-2.73-3.15-3.5-4-2-2.32-2.22-3.27-.08-5.49,1.16-1.21.59-2,0-3-1.82-2.8-1.77-2.73.72-4.66a1.37,1.37,0,0,0,.5-1.55c-.15-.93-.6-.53-1.07-1.41-.81-1.5-.4-2.73,1.17-3.13a8.1,8.1,0,0,1,1.54-.08c-.3-2.46-1.23-1.1,1-1.38,3-.37.69-1.63,1.3-5,.16-.88,2.15-1.68,3.43-2a6.47,6.47,0,0,1,3.14.55c2,.59,3.42-.12,4.52-2.21s5.26-1.81,7.46.24c.87.86.91,1.89,1.53,2.57" transform="translate(0 0)"/><path class="cls-1" d="M244.58,53.7c1.88,1.87,2.07,4.5.57,7.4A48.36,48.36,0,0,0,243,67c-1.48-.92-1.48-2.91-1-4.83.75-2.93,1.76-5.79,2.59-8.47" transform="translate(0 0)"/><path class="cls-1" d="M253.15,58.72a4.7,4.7,0,0,1,.43,5.27c-.61,1.3-1,2.68-1.6,4.14-1.35-.94-1.09-2.36-.59-3.86.58-1.76,1.12-3.54,1.76-5.55" transform="translate(0 0)"/><path class="cls-1" d="M234.28,68.19c-3-3.37,1.82-6.18.55-9.42,3.5,3.4-1,6.23-.55,9.42" transform="translate(0 0)"/><path class="cls-1" d="M151.17,45.25c-4.34,5.89-12.17,6.5-16.68,1.36q8.79,4.72,16.68-1.36" transform="translate(0 0)"/><path class="cls-1" d="M139.34,31.19l1.49,10,3.43-2.61.41.46-4.52,5-.81-.08-.73-12.73.72-.1" transform="translate(0 0)"/><path class="cls-1" d="M201.93,55.05c5.62,2.22,10.48.11,15.58-2.73-3.53,5.25-12.64,6.28-15.58,2.73" transform="translate(0 0)"/><path class="cls-1" d="M209.2,40.44c-.15,2.44-.37,4.88-.39,7.32a9.75,9.75,0,0,0,.75,2.65c.86-.4,1.74-.76,2.57-1.22a9.22,9.22,0,0,0,1.26-1l.47.56a14.35,14.35,0,0,1-3.33,2.3c-.59.21-2.29-.76-2.31-1.24-.13-3.13.07-6.28.16-9.42h.81" transform="translate(0 0)"/><path class="cls-1" d="M134.49,30.48A1.51,1.51,0,1,1,133,29h0a1.51,1.51,0,0,1,1.51,1.5" transform="translate(0 0)"/><path class="cls-1" d="M149,29.48a1.51,1.51,0,1,1-1.52-1.5h0a1.51,1.51,0,0,1,1.51,1.5" transform="translate(0 0)"/><path class="cls-1" d="M204,39.41a1.51,1.51,0,1,1-1.52-1.5h0a1.51,1.51,0,0,1,1.51,1.5" transform="translate(0 0)"/><path class="cls-1" d="M218.3,39.41a1.51,1.51,0,1,1-1.52-1.5h0a1.51,1.51,0,0,1,1.51,1.5" transform="translate(0 0)"/><path class="cls-1" d="M128.54,28.67a2,2,0,0,1,0-.41,4.29,4.29,0,0,1,.25-1,4.47,4.47,0,0,1,.32-.65,4.34,4.34,0,0,1,.48-.67,2.67,2.67,0,0,1,.31-.32,2.63,2.63,0,0,1,.35-.3,3.84,3.84,0,0,1,.83-.48,3.6,3.6,0,0,1,.93-.27,1.74,1.74,0,0,1,.47,0h.45a5.74,5.74,0,0,1,.83.16,3.75,3.75,0,0,1,.68.28,2.35,2.35,0,0,1,.52.32l.36.3a3.56,3.56,0,0,1,.29.28h-.85a3.72,3.72,0,0,0-.55,0h-.62a2.85,2.85,0,0,0-.65,0,2.09,2.09,0,0,0-.65.13,3.65,3.65,0,0,0-.63.22,4.12,4.12,0,0,0-.61.3l-.57.38a4.33,4.33,0,0,0-.52.42l-.47.42-.71.7-.28.29" transform="translate(0 0)"/><path class="cls-1" d="M145.38,25.41a2,2,0,0,1,.31-.26,4.23,4.23,0,0,1,1-.5,4.37,4.37,0,0,1,.7-.2,4.28,4.28,0,0,1,.82-.09,2.7,2.7,0,0,1,.45,0,2.5,2.5,0,0,1,.46.07,3.85,3.85,0,0,1,.91.31,3.62,3.62,0,0,1,.82.52,1.76,1.76,0,0,1,.34.32l.3.34a5.8,5.8,0,0,1,.43.73,3.8,3.8,0,0,1,.24.7,2.36,2.36,0,0,1,.11.6v.47a3.66,3.66,0,0,1,0,.4,3.16,3.16,0,0,1-.26-.31l-.27-.35a3.91,3.91,0,0,0-.35-.42c-.14-.14-.24-.32-.4-.47s-.3-.31-.47-.46a3,3,0,0,0-.53-.4,3.65,3.65,0,0,0-.58-.33,4.15,4.15,0,0,0-.63-.25l-.66-.17c-.22,0-.44-.09-.66-.11a2.45,2.45,0,0,1-.62-.07l-1-.07h-.4" transform="translate(0 0)"/><path class="cls-1" d="M197.93,37.45a2,2,0,0,1,0-.41,4.25,4.25,0,0,1,.25-1,4.66,4.66,0,0,1,.8-1.33,2.61,2.61,0,0,1,.31-.32,2.56,2.56,0,0,1,.35-.3,3.84,3.84,0,0,1,.83-.48,3.61,3.61,0,0,1,.93-.27,1.74,1.74,0,0,1,.47,0h.46a5.71,5.71,0,0,1,.83.16,3.75,3.75,0,0,1,.68.28,2.35,2.35,0,0,1,.52.32,4.37,4.37,0,0,1,.36.3,3.56,3.56,0,0,1,.29.28h-.85a3.72,3.72,0,0,0-.55,0h-.68a2.85,2.85,0,0,0-.65,0,2.09,2.09,0,0,0-.65.13A3.61,3.61,0,0,0,201,35a4.13,4.13,0,0,0-.61.3l-.57.38a4.33,4.33,0,0,0-.52.42l-.47.42-.71.7-.28.29" transform="translate(0 0)"/><path class="cls-1" d="M214.75,34.19a2,2,0,0,1,.32-.26,4.23,4.23,0,0,1,1-.5,4.48,4.48,0,0,1,.7-.19,4.28,4.28,0,0,1,.82-.09,2.7,2.7,0,0,1,.45,0,2.5,2.5,0,0,1,.46.07,3.88,3.88,0,0,1,.91.31,3.63,3.63,0,0,1,.82.52,1.76,1.76,0,0,1,.34.32l.3.34a5.69,5.69,0,0,1,.43.73,3.78,3.78,0,0,1,.24.7,2.36,2.36,0,0,1,.11.6v.47a3.67,3.67,0,0,1,0,.4,3.16,3.16,0,0,1-.26-.31l-.27-.35a3.9,3.9,0,0,0-.35-.42c-.14-.14-.24-.32-.4-.47s-.3-.31-.47-.46a3,3,0,0,0-.53-.4,3.65,3.65,0,0,0-.58-.33,4.15,4.15,0,0,0-.63-.25l-.66-.17c-.22,0-.44-.09-.66-.11a2.45,2.45,0,0,1-.62-.07l-1-.07h-.4" transform="translate(0 0)"/><path class="cls-1" d="M162.34,145v-5.5h1.17a4.2,4.2,0,0,1,1.31.16,2.45,2.45,0,0,1,.94.54,2.84,2.84,0,0,1,0,4l-.06.06a2.59,2.59,0,0,1-.93.54,4.25,4.25,0,0,1-1.29.15h-1.15Zm.83-.78h.37a3.12,3.12,0,0,0,.93-.12,1.89,1.89,0,0,0,1.28-1.85,1.91,1.91,0,0,0-.61-1.46,2.29,2.29,0,0,0-1.61-.5h-.37v3.94Z" transform="translate(0 0)"/><path class="cls-1" d="M168.47,139.45V145h-.83v-5.5Z" transform="translate(0 0)"/><path class="cls-1" d="M169.6,145l1.17-5.92,1.89,4.28,2-4.28,1,5.92h-.85l-.54-3.31-1.63,3.57L171,141.63l-.58,3.33h-.87Z" transform="translate(0 0)"/><path class="cls-1" d="M182.17,140.27l-.67.4a1.17,1.17,0,0,0-.36-.43.84.84,0,0,0-.46-.11.85.85,0,0,0-.58.2.61.61,0,0,0-.23.48q0,.4.6.65l.55.22a2.33,2.33,0,0,1,1,.66,1.49,1.49,0,0,1,.31,1,1.68,1.68,0,0,1-.51,1.25,1.75,1.75,0,0,1-1.26.5,1.69,1.69,0,0,1-1.18-.43,2,2,0,0,1-.58-1.19l.84-.19a1.43,1.43,0,0,0,.2.67,1,1,0,0,0,1.33.15l.06-.05a.9.9,0,0,0,.26-.66.92.92,0,0,0,0-.29.75.75,0,0,0-.14-.24,1.11,1.11,0,0,0-.24-.21,2.33,2.33,0,0,0-.36-.19l-.53-.22q-1.13-.48-1.13-1.4a1.33,1.33,0,0,1,.48-1,1.71,1.71,0,0,1,1.17-.42A1.65,1.65,0,0,1,182.17,140.27Z" transform="translate(0 0)"/><path class="cls-1" d="M184.14,139.45v3.31a1.82,1.82,0,0,0,.23,1,1.24,1.24,0,0,0,1.95,0,1.8,1.8,0,0,0,.23-1v-3.31h.83V143a2,2,0,0,1-.54,1.43,2.1,2.1,0,0,1-3,0l0,0a2,2,0,0,1-.54-1.43v-3.54h.83Z" transform="translate(0 0)"/><path class="cls-1" d="M188.51,145l1.17-5.92,1.89,4.28,2-4.28,1,5.92h-.85l-.54-3.31-1.63,3.56L190,141.62l-.58,3.33h-.86Z" transform="translate(0 0)"/><path class="cls-1" d="M116.25,115.58h2.14l5.16,12.71q.14.36.28.8t.28.83q.11.47.25.91.11-.44.25-.91t.26-.83q.15-.44.29-.8l5.14-12.71h2l-7.79,18.94h-.33Z" transform="translate(0 0)"/><path class="cls-1" d="M159.48,127.9a8.16,8.16,0,0,0,2.67-.38,4.58,4.58,0,0,0,1.79-1.09,4.22,4.22,0,0,0,1-1.68,6.87,6.87,0,0,0,.32-2.13,6.75,6.75,0,0,0-.32-2.12,4.23,4.23,0,0,0-1-1.66,4.71,4.71,0,0,0-1.79-1.1,7.9,7.9,0,0,0-2.67-.4h-2.16V127.9Zm-4.14-12.32h4.25a10.17,10.17,0,0,1,3.38.51,6.63,6.63,0,0,1,2.41,1.43,6,6,0,0,1,1.46,2.23,8.06,8.06,0,0,1,.5,2.88,7.87,7.87,0,0,1-.5,2.84,6.12,6.12,0,0,1-1.46,2.23,6.52,6.52,0,0,1-2.41,1.46,10.15,10.15,0,0,1-3.38.51h-2.26v4.66h-2Z" transform="translate(0 0)"/><polygon class="cls-1" points="173.36 115.58 184.78 115.58 184.78 117.34 175.35 117.34 175.35 126.11 183.75 126.11 183.75 127.87 175.35 127.87 175.35 132.56 185.16 132.56 185.16 134.32 173.36 134.32 173.36 115.58"/><path class="cls-1" d="M197.7,134.55a8.27,8.27,0,0,1-2.66-.41,6,6,0,0,1-2.14-1.24,5.66,5.66,0,0,1-1.42-2.07,7.58,7.58,0,0,1-.51-2.89V115.58h2v12.21a5,5,0,0,0,1.27,3.75,5.47,5.47,0,0,0,6.93,0,5,5,0,0,0,1.28-3.75V115.58h2v12.35a7.58,7.58,0,0,1-.51,2.89,5.66,5.66,0,0,1-1.42,2.07,6,6,0,0,1-2.14,1.24,8.28,8.28,0,0,1-2.66.41" transform="translate(0 0)"/><path class="cls-1" d="M215.43,127.63a8.24,8.24,0,0,0,2.7-.38,4.66,4.66,0,0,0,1.79-1.08,4.14,4.14,0,0,0,1-1.63,6.33,6.33,0,0,0,.32-2,6.46,6.46,0,0,0-.32-2,4.14,4.14,0,0,0-1-1.64,4.66,4.66,0,0,0-1.8-1.08,8.27,8.27,0,0,0-2.69-.38h-2.12v10.28h2.12Zm8,6.7h-2.33l-3.61-5.1a11.71,11.71,0,0,1-2,.17h-2.23v4.93h-2V115.58h4.22a10.17,10.17,0,0,1,3.38.51,6.75,6.75,0,0,1,2.42,1.43,6,6,0,0,1,1.47,2.19,7.58,7.58,0,0,1,.5,2.78,6.85,6.85,0,0,1-1,3.69,6,6,0,0,1-2.93,2.37Z" transform="translate(0 0)"/><path class="cls-1" d="M234.45,134.55a8.29,8.29,0,0,1-2.4-.31,7.08,7.08,0,0,1-1.85-.84,6,6,0,0,1-1.36-1.21,7.11,7.11,0,0,1-.92-1.43l1.65-.87a8.88,8.88,0,0,0,.76,1.12,4.8,4.8,0,0,0,1,.94,4.66,4.66,0,0,0,1.32.64,5.94,5.94,0,0,0,1.75.23,5.08,5.08,0,0,0,1.53-.22,3.79,3.79,0,0,0,1.23-.64,3,3,0,0,0,.83-1,2.89,2.89,0,0,0,.29-1.34,3.4,3.4,0,0,0-.22-1.27,3.1,3.1,0,0,0-.66-1,5.48,5.48,0,0,0-1.1-.85,13.38,13.38,0,0,0-1.54-.79l-1.49-.69a13.12,13.12,0,0,1-1.77-.94,5.94,5.94,0,0,1-1.29-1.1,4.37,4.37,0,0,1-.8-1.35,5,5,0,0,1-.28-1.75,4.51,4.51,0,0,1,.37-1.85,4.19,4.19,0,0,1,1-1.42,4.49,4.49,0,0,1,1.56-.91,5.91,5.91,0,0,1,2-.32,5.63,5.63,0,0,1,3.12.79,6.16,6.16,0,0,1,2,2l-1.6,1a5.16,5.16,0,0,0-1.35-1.46,3.54,3.54,0,0,0-2.12-.58,3.1,3.1,0,0,0-2.19.73,2.53,2.53,0,0,0-.79,1.94,2.62,2.62,0,0,0,.71,1.94,8,8,0,0,0,2.28,1.42l1.49.69a16.11,16.11,0,0,1,2,1.09,6.9,6.9,0,0,1,1.48,1.24,4.72,4.72,0,0,1,.9,1.52,5.54,5.54,0,0,1,.29,1.89,4.77,4.77,0,0,1-.44,2.08,4.49,4.49,0,0,1-1.21,1.56,5.54,5.54,0,0,1-1.83,1,7.51,7.51,0,0,1-2.33.34" transform="translate(0 0)"/><path class="cls-1" d="M151.27,135.38a10.06,10.06,0,0,0-.62-1.22l-2.49-4.37L145,124.28l-2.05-3.51-1.17-2,0-.07v-6.06a1.25,1.25,0,0,0,0-.29v0a.61.61,0,0,0-.06-.15v0a.72.72,0,0,0-.13-.17l-.2-.13h0l-.12-.06-.1,0h-.2l-.1,0,0,0h-.1a.94.94,0,0,0-.27.07.8.8,0,0,0-.21.13.72.72,0,0,0-.22.41,1.26,1.26,0,0,0,0,.29c0,.15,0,.31,0,.48v.27l0,2.35-1.08-1.84a1.5,1.5,0,0,0-.15-.21l0,0-.08-.07-.06,0,0,0h-.21a.63.63,0,0,0-.27,0l-.09,0-.09,0,0,0-.08,0h0l-.08,0-.06,0-.09.08a.65.65,0,0,0-.2.42,1,1,0,0,0,.15.54l.14.19.15.24,2.3,3.74q0,.61,0,1.23t0,1c0,1.08.08,2.17.11,3.09l.25,6.17.15,3.09c0,.23,0,.46,0,.69a18.3,18.3,0,0,0,.21,2.4l0,.1h.46l0-.1a9.13,9.13,0,0,0,.1-1.33l.1-4.86.08-6.18c0-.94,0-1.87,0-2.7l.51.81,1.47,2.33,3.61,5.64L149,133l.39.58a20.71,20.71,0,0,0,1.43,2l.06.07.43-.17Z" transform="translate(0 0)"/><rect class="cls-1" x="123.36" y="140.8" width="26.7" height="0.61"/><rect class="cls-1" x="206.58" y="140.8" width="26.66" height="0.61"/></svg>