<?xml version="1.0" encoding="utf-8"?>
<!-- Generator: Adobe Illustrator 16.0.0, SVG Export Plug-In . SVG Version: 6.00 Build 0)  -->
<!DOCTYPE svg PUBLIC "-//W3C//DTD SVG 1.1//EN" "http://www.w3.org/Graphics/SVG/1.1/DTD/svg11.dtd">
<svg version="1.1" id="Layer_1" xmlns="http://www.w3.org/2000/svg" xmlns:xlink="http://www.w3.org/1999/xlink" x="0px" y="0px"
	 width="60px" height="60px" viewBox="370 370 60 60" enable-background="new 370 370 60 60" xml:space="preserve">
<g>
	<path fill="#FFFFFF" d="M419.343,419.342c0.96-0.961,1.555-1.873,2.053-3.154c0.375-0.969,0.822-2.421,0.944-5.097
		c0.133-2.895,0.16-3.763,0.16-11.091c0-7.329-0.027-8.197-0.16-11.091c-0.122-2.675-0.569-4.128-0.944-5.095
		c-0.498-1.281-1.093-2.195-2.053-3.157c-0.961-0.959-1.875-1.556-3.156-2.053c-0.968-0.375-2.421-0.823-5.097-0.945
		c-2.895-0.132-3.762-0.159-11.09-0.159s-8.196,0.027-11.09,0.159c-2.677,0.122-4.13,0.569-5.097,0.945
		c-1.281,0.498-2.196,1.094-3.156,2.053c-0.96,0.961-1.555,1.875-2.053,3.157c-0.376,0.967-0.823,2.42-0.944,5.095
		c-0.132,2.894-0.16,3.762-0.16,11.091c0,7.328,0.028,8.196,0.16,11.091c0.121,2.676,0.568,4.128,0.944,5.097
		c0.498,1.281,1.093,2.193,2.053,3.154s1.875,1.555,3.156,2.054c0.967,0.375,2.42,0.823,5.097,0.944
		c2.894,0.133,3.762,0.16,11.09,0.16s8.196-0.027,11.09-0.16c2.676-0.121,4.129-0.569,5.097-0.944
		C417.468,420.896,418.382,420.303,419.343,419.342z M400,414.094c-7.783,0-14.093-6.311-14.093-14.094
		c0-7.784,6.31-14.094,14.093-14.094s14.093,6.31,14.093,14.094C414.093,407.783,407.783,414.094,400,414.094z M411.357,385.349
		c0-1.818,1.475-3.292,3.293-3.292s3.293,1.474,3.293,3.292c0,1.819-1.475,3.294-3.293,3.294S411.357,387.168,411.357,385.349z"/>
	<g>
		<circle fill="#FFFFFF" cx="400" cy="400" r="9.148"/>
	</g>
</g>
</svg>
